<svg width="18" height="18" viewBox="0 0 18 18" fill="none" xmlns="http://www.w3.org/2000/svg">
<path fill-rule="evenodd" clip-rule="evenodd" d="M15.3774 2.61634C13.6854 0.930385 11.435 0.00147266 9.03763 0.000488281C4.09762 0.000488281 0.0771505 4.00161 0.0751723 8.91929C0.074494 10.4913 0.487122 12.0259 1.27146 13.3785L0 18.0005L4.75114 16.7601C6.06027 17.4708 7.53413 17.8454 9.03398 17.8458H9.03777C13.9772 17.8458 17.9981 13.8444 18 8.92644C18.001 6.54307 17.0696 4.30221 15.3774 2.61634ZM9.03763 16.3394H9.03452C7.69792 16.3389 6.38701 15.9814 5.24312 15.3061L4.97126 15.1453L2.15185 15.8814L2.90436 13.1457L2.72717 12.8652C1.9815 11.6849 1.58772 10.3206 1.5884 8.91983C1.58995 4.83236 4.93173 1.50692 9.04062 1.50692C11.0303 1.50757 12.9007 2.27968 14.3071 3.68098C15.7134 5.08228 16.4875 6.94492 16.4869 8.92587C16.4851 13.0136 13.1436 16.3394 9.03763 16.3394ZM13.1237 10.787C12.8998 10.6754 11.7987 10.1365 11.5934 10.062C11.3883 9.98759 11.2388 9.95055 11.0897 10.1736C10.9403 10.3966 10.5112 10.8987 10.3805 11.0473C10.2498 11.1961 10.1193 11.2147 9.89536 11.1031C9.67139 10.9916 8.94985 10.7562 8.09444 9.99693C7.42877 9.40597 6.97938 8.67615 6.84867 8.45315C6.7182 8.22989 6.84754 8.12091 6.94691 7.99828C7.18932 7.69869 7.43208 7.38459 7.50671 7.23595C7.58143 7.08717 7.54402 6.95701 7.48795 6.84549C7.43208 6.73398 6.98424 5.63699 6.79766 5.19062C6.61575 4.75623 6.43127 4.81487 6.29373 4.80809C6.16325 4.80159 6.01389 4.80027 5.86454 4.80027C5.71527 4.80027 5.47263 4.85596 5.26732 5.07922C5.06209 5.30236 4.48366 5.84146 4.48366 6.93845C4.48366 8.03543 5.28608 9.09516 5.39802 9.24391C5.50993 9.39269 6.97717 11.6438 9.22352 12.609C9.75781 12.8389 10.1749 12.9759 10.5002 13.0786C11.0367 13.2482 11.5248 13.2243 11.9107 13.1669C12.341 13.1029 13.2355 12.6277 13.4223 12.1071C13.6088 11.5866 13.6088 11.1404 13.5527 11.0473C13.4969 10.9544 13.3475 10.8987 13.1237 10.787Z" fill="#5F6C72"/>
</svg>
