<svg width="18" height="18" viewBox="0 0 18 18" fill="none" xmlns="http://www.w3.org/2000/svg">
<rect width="18" height="18" fill="#F5F5F5"/>
<g id="14_Wishlist" clip-path="url(#clip0_0_1)">
<rect width="1920" height="1659" transform="translate(-479 -779)" fill="white"/>
<g id="Wishlist">
<rect x="-178.5" y="-452.5" width="1319" height="505" rx="7.5" stroke="#E6E6E6"/>
<g id="Share">
<g id="Share_2">
<g id="Social Media">
<g id="instagram 1" clip-path="url(#clip1_0_1)">
<path id="Vector" d="M17.982 5.29254C17.9398 4.33613 17.7852 3.67861 17.5636 3.10885C17.335 2.50407 16.9834 1.96262 16.5227 1.5125C16.0726 1.05538 15.5276 0.700179 14.9298 0.47519C14.3568 0.253635 13.7027 0.0989725 12.7463 0.0568042C11.7827 0.0110647 11.4768 0.000488281 9.03299 0.000488281C6.58916 0.000488281 6.28327 0.0110647 5.32329 0.053233C4.36688 0.0954012 3.70936 0.250201 3.13975 0.471619C2.53483 0.700179 1.99338 1.05181 1.54326 1.5125C1.08614 1.96262 0.731077 2.50765 0.505951 3.10542C0.284397 3.67861 0.129734 4.33256 0.0875658 5.28897C0.0418264 6.25252 0.03125 6.55841 0.03125 9.00225C0.03125 11.4461 0.0418264 11.752 0.0839946 12.712C0.126163 13.6684 0.280963 14.3259 0.502517 14.8956C0.731077 15.5004 1.08614 16.0419 1.54326 16.492C1.99338 16.9491 2.5384 17.3043 3.13618 17.5293C3.70936 17.7509 4.36331 17.9055 5.31986 17.9477C6.2797 17.99 6.58573 18.0004 9.02956 18.0004C11.4734 18.0004 11.7793 17.99 12.7393 17.9477C13.6957 17.9055 14.3532 17.7509 14.9228 17.5293C16.1325 17.0616 17.0889 16.1052 17.5566 14.8956C17.778 14.3225 17.9328 13.6684 17.975 12.712C18.0172 11.752 18.0277 11.4461 18.0277 9.00225C18.0277 6.55841 18.0242 6.25252 17.982 5.29254ZM16.3611 12.6416C16.3223 13.5207 16.1747 13.9954 16.0516 14.3119C15.7491 15.096 15.1268 15.7184 14.3426 16.0209C14.0261 16.1439 13.548 16.2916 12.6724 16.3302C11.723 16.3725 11.4382 16.3829 9.03657 16.3829C6.6349 16.3829 6.34659 16.3725 5.40062 16.3302C4.52155 16.2916 4.04684 16.1439 3.73038 16.0209C3.34015 15.8766 2.98495 15.6481 2.69664 15.3492C2.39775 15.0573 2.16919 14.7057 2.02497 14.3154C1.9019 13.999 1.75424 13.5207 1.71564 12.6452C1.67334 11.6958 1.6629 11.4109 1.6629 9.00925C1.6629 6.60758 1.67334 6.31927 1.71564 5.37344C1.75424 4.49436 1.9019 4.01966 2.02497 3.70319C2.16919 3.31283 2.39775 2.95776 2.70021 2.66931C2.99195 2.37043 3.34358 2.14187 3.73395 1.99778C4.05042 1.87471 4.52869 1.72705 5.40419 1.68832C6.3536 1.64615 6.63847 1.63557 9.04 1.63557C11.4452 1.63557 11.73 1.64615 12.6759 1.68832C13.555 1.72705 14.0297 1.87471 14.3462 1.99778C14.7364 2.14187 15.0916 2.37043 15.3799 2.66931C15.6788 2.9612 15.9074 3.31283 16.0516 3.70319C16.1747 4.01966 16.3223 4.4978 16.3611 5.37344C16.4032 6.32284 16.4138 6.60758 16.4138 9.00925C16.4138 11.4109 16.4032 11.6922 16.3611 12.6416Z" fill="#5F6C72"/>
<path id="Vector_2" d="M9.03313 4.37842C6.48037 4.37842 4.40918 6.44947 4.40918 9.00237C4.40918 11.5553 6.48037 13.6263 9.03313 13.6263C11.586 13.6263 13.6571 11.5553 13.6571 9.00237C13.6571 6.44947 11.586 4.37842 9.03313 4.37842ZM9.03313 12.0018C7.37703 12.0018 6.03369 10.6586 6.03369 9.00237C6.03369 7.34613 7.37703 6.00293 9.03313 6.00293C10.6894 6.00293 12.0326 7.34613 12.0326 9.00237C12.0326 10.6586 10.6894 12.0018 9.03313 12.0018Z" fill="#5F6C72"/>
<path id="Vector_3" d="M14.9199 4.19569C14.9199 4.79182 14.4365 5.27518 13.8402 5.27518C13.2441 5.27518 12.7607 4.79182 12.7607 4.19569C12.7607 3.59943 13.2441 3.11621 13.8402 3.11621C14.4365 3.11621 14.9199 3.59943 14.9199 4.19569Z" fill="#5F6C72"/>
</g>
</g>
</g>
</g>
</g>
</g>
<defs>
<clipPath id="clip0_0_1">
<rect width="1920" height="1659" fill="white" transform="translate(-479 -779)"/>
</clipPath>
<clipPath id="clip1_0_1">
<rect width="18" height="18" fill="white" transform="translate(0 0.000488281)"/>
</clipPath>
</defs>
</svg>
