<svg width="18" height="18" viewBox="0 0 18 18" fill="none" xmlns="http://www.w3.org/2000/svg">
<g clip-path="url(#clip0_596_1468)">
<path d="M18 3.41936C17.3306 3.71299 16.6174 3.90761 15.8737 4.00211C16.6388 3.54536 17.2226 2.82761 17.4971 1.96249C16.7839 2.38774 15.9964 2.68811 15.1571 2.85574C14.4799 2.13461 13.5146 1.68799 12.4616 1.68799C10.4186 1.68799 8.77387 3.34624 8.77387 5.37911C8.77387 5.67161 8.79862 5.95286 8.85938 6.22061C5.7915 6.07099 3.07687 4.60061 1.25325 2.36074C0.934875 2.91311 0.748125 3.54536 0.748125 4.22599C0.748125 5.50399 1.40625 6.63686 2.38725 7.29274C1.79437 7.28149 1.21275 7.10936 0.72 6.83824C0.72 6.84949 0.72 6.86411 0.72 6.87874C0.72 8.67199 1.99912 10.1615 3.6765 10.5046C3.37612 10.5867 3.04875 10.6261 2.709 10.6261C2.47275 10.6261 2.23425 10.6126 2.01038 10.5631C2.4885 12.0245 3.84525 13.0989 5.4585 13.1337C4.203 14.1159 2.60888 14.7076 0.883125 14.7076C0.5805 14.7076 0.29025 14.6941 0 14.657C1.63462 15.7111 3.57188 16.313 5.661 16.313C12.4515 16.313 16.164 10.688 16.164 5.81224C16.164 5.64911 16.1584 5.49161 16.1505 5.33524C16.8829 4.81549 17.4982 4.16636 18 3.41936Z" fill="#5F6C72"/>
</g>
<defs>
<clipPath id="clip0_596_1468">
<rect width="18" height="18" fill="white" transform="translate(0 0.000488281)"/>
</clipPath>
</defs>
</svg>
