<svg width="150" height="150" viewBox="0 0 150 150" fill="none" xmlns="http://www.w3.org/2000/svg">
<path d="M0.2 104.02C0.242735 104.555 0.456954 105.063 0.8109 105.467C1.16485 105.872 1.63968 106.151 2.165 106.265L10.8775 108.145C11.185 109.63 11.575 111.095 12.0475 112.525L5.4525 118.5C5.05433 118.861 4.78312 119.341 4.6791 119.868C4.57507 120.395 4.64377 120.942 4.875 121.427C6.01627 123.851 7.35057 126.18 8.865 128.39C9.17034 128.831 9.60965 129.163 10.118 129.335C10.6263 129.508 11.1766 129.512 11.6875 129.347L20.155 126.62C21.1675 127.755 22.245 128.832 23.38 129.845L20.6525 138.312C20.4879 138.823 20.4922 139.374 20.6646 139.882C20.8371 140.39 21.1685 140.83 21.61 141.135C23.8202 142.649 26.1485 143.984 28.5725 145.125C29.0577 145.356 29.6045 145.425 30.1319 145.321C30.6592 145.217 31.139 144.946 31.5 144.547L37.475 137.952C38.9075 138.422 40.3725 138.815 41.8575 139.122L43.7375 147.835C43.97 148.912 44.8825 149.71 45.98 149.8C47.31 149.905 48.6425 150 50 150C51.3575 150 52.69 149.905 54.02 149.8C54.5557 149.757 55.0634 149.543 55.4678 149.189C55.8721 148.835 56.1517 148.36 56.265 147.835L58.145 139.122C59.627 138.817 61.0903 138.426 62.5275 137.952L68.5025 144.547C68.8633 144.946 69.3431 145.217 69.8705 145.321C70.3979 145.426 70.9449 145.357 71.43 145.125C73.8535 143.983 76.1818 142.648 78.3925 141.135C78.834 140.83 79.1654 140.39 79.3379 139.882C79.5103 139.374 79.5146 138.823 79.35 138.312L76.6225 129.845C77.7575 128.832 78.835 127.755 79.8475 126.622L88.315 129.35C88.8259 129.515 89.3763 129.511 89.8847 129.338C90.3931 129.166 90.8324 128.834 91.1375 128.392C92.6519 126.182 93.9862 123.854 95.1275 121.43C95.3587 120.945 95.4274 120.398 95.3234 119.87C95.2194 119.343 94.9482 118.863 94.55 118.502L87.955 112.527C88.425 111.095 88.8175 109.63 89.125 108.145L97.8375 106.265C98.915 106.032 99.7125 105.12 99.8025 104.022C99.905 102.69 100 101.357 100 99.9996C100 98.6421 99.905 97.3096 99.8 95.9796C99.7573 95.4438 99.543 94.9362 99.1891 94.5318C98.8352 94.1274 98.3603 93.8478 97.835 93.7345L89.1225 91.8545C88.8167 90.3725 88.426 88.9092 87.9525 87.472L94.5475 81.4969C94.9457 81.1359 95.2169 80.6561 95.3209 80.1288C95.4249 79.6014 95.3562 79.0546 95.125 78.5694C93.9828 76.1459 92.6485 73.8176 91.135 71.6068C90.8299 71.1651 90.3906 70.8334 89.8822 70.6609C89.3738 70.4884 88.8234 70.4844 88.3125 70.6493L79.845 73.3769C78.8321 72.2415 77.7554 71.1647 76.62 70.1518L79.3475 61.6843C79.512 61.1734 79.5078 60.623 79.3354 60.1147C79.1629 59.6064 78.8315 59.1671 78.39 58.8617C76.1798 57.3473 73.8515 56.013 71.4275 54.8717C70.9425 54.6397 70.3954 54.5705 69.8679 54.6746C69.3404 54.7787 68.8606 55.0504 68.5 55.4492L62.525 62.0443C61.0873 61.5722 59.6242 61.1816 58.1425 60.8743L56.2625 52.1617C56.149 51.6369 55.8697 51.1626 55.4658 50.8088C55.062 50.4549 54.5551 50.2403 54.02 50.1967C51.3434 49.9842 48.6541 49.9842 45.9775 50.1967C45.4418 50.2394 44.9341 50.4536 44.5297 50.8076C44.1254 51.1615 43.8458 51.6364 43.7325 52.1617L41.8525 60.8743C40.3675 61.1818 38.9025 61.5718 37.4725 62.0443L31.4975 55.4492C31.1364 55.051 30.6567 54.7798 30.1294 54.6758C29.602 54.5718 29.0552 54.6405 28.57 54.8717C26.146 56.013 23.8177 57.3473 21.6075 58.8617C21.166 59.1671 20.8346 59.6064 20.6621 60.1147C20.4897 60.623 20.4855 61.1734 20.65 61.6843L23.3775 70.1518C22.2425 71.1644 21.165 72.2419 20.1525 73.3769L11.6875 70.6493C11.1766 70.484 10.6261 70.4878 10.1176 70.6603C9.60907 70.8328 9.16979 71.1648 8.865 71.6068C7.35057 73.817 6.01627 76.1454 4.875 78.5694C4.64377 79.0546 4.57507 79.6014 4.6791 80.1288C4.78312 80.6561 5.05433 81.1359 5.4525 81.4969L12.0475 87.472C11.5754 88.9097 11.1848 90.3728 10.8775 91.8545L2.165 93.7345C1.0875 93.967 0.29 94.8795 0.2 95.9771C0.0949998 97.3096 0 98.6421 0 99.9996C0 101.357 0.0949998 102.69 0.2 104.02ZM5.0525 98.2271L13.5575 96.3896C14.0487 96.2835 14.4965 96.0319 14.8426 95.6676C15.1886 95.3032 15.4169 94.843 15.4975 94.347C15.8725 92.042 16.4775 89.7795 17.295 87.6195C17.4731 87.1497 17.5053 86.6372 17.3876 86.1488C17.2699 85.6605 17.0076 85.2189 16.635 84.882L10.2125 79.0619C10.7725 77.9894 11.3575 76.9619 11.9625 75.9894L20.2025 78.6444C21.1775 78.9569 22.2525 78.6444 22.905 77.8494C24.3849 76.0408 26.0414 74.3842 27.85 72.9044C28.645 72.2544 28.9625 71.1818 28.645 70.2018L25.99 61.9618C26.9625 61.3543 27.9875 60.7693 29.0625 60.2118L34.8825 66.6368C35.575 67.3993 36.665 67.6618 37.6225 67.2968C39.7982 66.4736 42.0512 65.8714 44.3475 65.4993C44.8435 65.4187 45.3037 65.1904 45.668 64.8444C46.0324 64.4983 46.284 64.0505 46.39 63.5593L48.225 55.0542C49.4025 54.9917 50.6 54.9892 51.7725 55.0542L53.61 63.5593C53.716 64.0505 53.9676 64.4983 54.332 64.8444C54.6963 65.1904 55.1565 65.4187 55.6525 65.4993C57.9575 65.8743 60.22 66.4793 62.38 67.2968C62.8497 67.4752 63.3623 67.5077 63.8508 67.3899C64.3392 67.2722 64.7807 67.0097 65.1175 66.6368L70.9375 60.2143C72.01 60.7743 73.0375 61.3593 74.01 61.9643L71.355 70.2043C71.04 71.1843 71.355 72.2544 72.15 72.9069C73.9586 74.3867 75.6152 76.0433 77.095 77.8519C77.4125 78.2418 77.8406 78.5264 78.323 78.6683C78.8054 78.8102 79.3194 78.8028 79.7975 78.6469L88.0375 75.9919C88.645 76.9644 89.23 77.9894 89.7875 79.0619L83.3625 84.882C82.9897 85.2193 82.7273 85.6613 82.6096 86.1501C82.4918 86.6389 82.5242 87.1519 82.7025 87.622C83.52 89.777 84.125 92.0395 84.5 94.347C84.5806 94.843 84.8089 95.3032 85.1549 95.6676C85.501 96.0319 85.9488 96.2835 86.44 96.3896L94.945 98.2246C94.9775 98.8121 95 99.4046 95 99.9996C95 100.595 94.98 101.187 94.9475 101.772L86.4425 103.61C85.9513 103.716 85.5035 103.967 85.1574 104.332C84.8114 104.696 84.5831 105.156 84.5025 105.652C84.1294 107.949 83.5273 110.203 82.705 112.38C82.5269 112.849 82.4947 113.362 82.6124 113.85C82.7302 114.339 82.9924 114.78 83.365 115.117L89.7875 120.937C89.2275 122.01 88.6425 123.037 88.0375 124.01L79.7975 121.355C79.3195 121.199 78.8053 121.191 78.3229 121.333C77.8404 121.475 77.4123 121.76 77.095 122.15C75.6145 123.958 73.958 125.614 72.15 127.095C71.355 127.745 71.04 128.817 71.355 129.795L74.01 138.035C73.0375 138.642 72.0125 139.227 70.94 139.785L65.12 133.36C64.7818 132.988 64.3399 132.727 63.8514 132.609C63.3629 132.491 62.8503 132.523 62.38 132.7C60.225 133.517 57.9625 134.122 55.655 134.497C55.159 134.578 54.6988 134.806 54.3345 135.152C53.9702 135.498 53.7185 135.946 53.6125 136.437L51.7775 144.942C50.6 145.005 49.4025 145.007 48.23 144.942L46.3925 136.437C46.2864 135.946 46.0349 135.498 45.6705 135.152C45.3062 134.806 44.846 134.578 44.35 134.497C42.0531 134.124 39.7994 133.522 37.6225 132.7C37.1528 132.521 36.6402 132.489 36.1517 132.607C35.6633 132.725 35.2218 132.987 34.885 133.36L29.065 139.782C28.0193 139.238 26.9944 138.654 25.9925 138.032L28.6475 129.792C28.9625 128.812 28.6475 127.742 27.8525 127.09C26.0439 125.61 24.3874 123.953 22.9075 122.145C22.5893 121.756 22.1612 121.472 21.679 121.33C21.1969 121.188 20.6832 121.195 20.205 121.35L11.965 124.005C11.341 123.004 10.7572 121.979 10.215 120.932L16.64 115.112C17.0128 114.775 17.2752 114.333 17.3929 113.844C17.5107 113.355 17.4783 112.842 17.3 112.372C16.4768 110.196 15.8746 107.943 15.5025 105.647C15.4219 105.151 15.1936 104.691 14.8476 104.327C14.5015 103.962 14.0537 103.711 13.5625 103.605L5.0525 101.775C5.0225 101.187 5 100.595 5 99.9996C5 99.4046 5.02 98.8121 5.0525 98.2271ZM130.548 35.5866C131.008 35.4415 131.417 35.1663 131.724 34.7941C132.031 34.4219 132.225 33.9686 132.28 33.489C132.43 32.2265 132.5 31.084 132.5 29.999C132.5 28.914 132.43 27.7715 132.283 26.509C132.227 26.0294 132.034 25.5761 131.727 25.2039C131.419 24.8317 131.01 24.5565 130.55 24.4115L123.617 22.2339C123.411 21.6679 123.181 21.1108 122.928 20.5639L126.287 14.1264C126.51 13.6984 126.605 13.2153 126.559 12.735C126.514 12.2547 126.331 11.7977 126.032 11.4189C124.58 9.58396 122.92 7.92369 121.085 6.47131C120.706 6.17221 120.25 5.9888 119.769 5.94312C119.289 5.89744 118.806 5.99144 118.378 6.21381L111.935 9.57384C111.388 9.32263 110.831 9.09328 110.265 8.88633L108.088 1.95377C107.942 1.4933 107.667 1.08467 107.295 0.777229C106.923 0.469787 106.47 0.27669 105.99 0.22126C103.672 -0.0737533 101.326 -0.0737533 99.0075 0.22126C98.5279 0.27669 98.0747 0.469787 97.7025 0.777229C97.3302 1.08467 97.055 1.4933 96.91 1.95377L94.7325 8.88633C94.165 9.09383 93.6075 9.32383 93.0625 9.57634L86.625 6.21631C86.1969 5.9942 85.7139 5.90014 85.2337 5.94536C84.7536 5.99058 84.2966 6.17318 83.9175 6.47131C82.0826 7.92369 80.4224 9.58396 78.97 11.4189C78.6703 11.7971 78.4865 12.2541 78.4409 12.7345C78.3952 13.215 78.4895 13.6984 78.7125 14.1264L82.07 20.5639C81.82 21.1089 81.59 21.6664 81.3825 22.2339L74.45 24.4115C73.9895 24.5565 73.5809 24.8317 73.2735 25.2039C72.966 25.5761 72.7729 26.0294 72.7175 26.509C72.57 27.7715 72.5 28.914 72.5 29.999C72.5 31.084 72.57 32.2265 72.7175 33.489C72.7729 33.9686 72.966 34.4219 73.2735 34.7941C73.5809 35.1663 73.9895 35.4415 74.45 35.5866L81.3825 37.7641C81.59 38.3316 81.82 38.8891 82.0725 39.4341L78.7125 45.8716C78.2575 46.7442 78.3575 47.8042 78.9675 48.5792C80.4199 50.4141 82.0801 52.0743 83.915 53.5267C84.6875 54.1392 85.75 54.2367 86.6225 53.7842L93.06 50.4267C93.605 50.6767 94.1625 50.9067 94.73 51.1142L96.9075 58.0467C97.0525 58.5072 97.3277 58.9158 97.7 59.2233C98.0722 59.5307 98.5254 59.7238 99.005 59.7793C100.273 59.9293 101.415 59.9993 102.5 59.9993C103.585 59.9993 104.728 59.9293 105.99 59.7818C106.47 59.7263 106.923 59.5332 107.295 59.2258C107.667 58.9183 107.942 58.5097 108.088 58.0492L110.265 51.1167C110.832 50.9092 111.39 50.6792 111.935 50.4267L118.372 53.7867C118.8 54.01 119.284 54.1048 119.764 54.0596C120.244 54.0143 120.701 53.831 121.08 53.5317C122.915 52.0793 124.575 50.4191 126.027 48.5842C126.327 48.2059 126.511 47.7489 126.557 47.2685C126.602 46.788 126.508 46.3046 126.285 45.8766L122.925 39.4391C123.177 38.8941 123.408 38.3366 123.615 37.7691L130.548 35.5866ZM120.898 33.3765C120.108 33.6265 119.493 34.249 119.253 35.044C118.916 36.164 118.469 37.2477 117.917 38.2791C117.724 38.6381 117.621 39.0392 117.618 39.4472C117.616 39.8552 117.713 40.2576 117.902 40.6191L121.075 46.6992C120.482 47.3567 119.855 47.9842 119.2 48.5742L113.12 45.4016C112.758 45.2131 112.356 45.1158 111.948 45.1185C111.54 45.1211 111.139 45.2234 110.78 45.4166C109.749 45.968 108.665 46.4152 107.545 46.7516C107.154 46.8694 106.798 47.0808 106.507 47.3675C106.217 47.6542 106.001 48.0074 105.878 48.3967L103.818 54.9567C102.94 55.0117 102.06 55.0117 101.182 54.9567L99.1225 48.3967C98.9994 48.0074 98.7832 47.6542 98.4926 47.3675C98.202 47.0808 97.8458 46.8694 97.455 46.7516C96.3353 46.4165 95.2523 45.9692 94.2225 45.4166C93.863 45.223 93.4615 45.1204 93.0531 45.1178C92.6448 45.1152 92.242 45.2126 91.88 45.4016L85.8 48.5742C85.1429 47.9821 84.5171 47.3562 83.925 46.6992L87.0975 40.6191C87.2861 40.2574 87.3833 39.8551 87.3807 39.4472C87.3781 39.0393 87.2757 38.6383 87.0825 38.2791C86.5312 37.2477 86.084 36.164 85.7475 35.044C85.6297 34.6532 85.4184 34.297 85.1317 34.0064C84.845 33.7158 84.4917 33.4996 84.1025 33.3765L77.5425 31.3165C77.4848 30.4391 77.4848 29.5589 77.5425 28.6815L84.1025 26.6215C84.8925 26.3715 85.5075 25.749 85.7475 24.954C86.0875 23.8215 86.5375 22.7339 87.0825 21.7214C87.2761 21.3619 87.3787 20.9604 87.3813 20.552C87.384 20.1437 87.2865 19.7409 87.0975 19.3789L83.925 13.2989C84.5175 12.6414 85.145 12.0139 85.8 11.4239L91.88 14.5964C92.6125 14.9789 93.4925 14.9714 94.22 14.5814C95.2513 14.03 96.335 13.5828 97.455 13.2464C98.2475 13.0089 98.8725 12.3914 99.1225 11.6014L101.182 5.0413C102.06 4.9863 102.94 4.9863 103.818 5.0413L105.878 11.6014C106.128 12.3914 106.75 13.0064 107.545 13.2464C108.678 13.5864 109.765 14.0364 110.778 14.5814C111.137 14.775 111.539 14.8776 111.947 14.8802C112.355 14.8828 112.758 14.7854 113.12 14.5964L119.2 11.4239C119.857 12.0164 120.485 12.6439 121.075 13.2989L117.902 19.3789C117.714 19.7406 117.617 20.1429 117.619 20.5508C117.622 20.9587 117.724 21.3597 117.917 21.7189C118.463 22.7364 118.912 23.824 119.253 24.954C119.49 25.7465 120.108 26.3715 120.898 26.6215L127.458 28.6815C127.515 29.5589 127.515 30.4391 127.458 31.3165L120.898 33.3765ZM148.155 82.4094L143.86 80.8844C143.617 80.1888 143.335 79.5069 143.018 78.8419L144.97 74.7294C145.17 74.3105 145.248 73.8442 145.197 73.383C145.146 72.9219 144.967 72.4842 144.68 72.1194C143.427 70.5176 141.984 69.0737 140.383 67.8193C140.017 67.5332 139.579 67.3545 139.117 67.3033C138.656 67.252 138.189 67.3303 137.77 67.5293L133.655 69.4818C132.991 69.1645 132.31 68.884 131.615 68.6418L130.087 64.3468C129.931 63.9089 129.656 63.5231 129.293 63.2326C128.931 62.9421 128.494 62.7583 128.033 62.7018C126.019 62.4343 123.979 62.4343 121.965 62.7018C121.503 62.7574 121.066 62.9409 120.703 63.2316C120.34 63.5222 120.065 63.9085 119.91 64.3468L118.385 68.6418C117.688 68.8868 117.005 69.1668 116.342 69.4843L112.23 67.5318C111.811 67.3333 111.345 67.2553 110.884 67.3065C110.423 67.3577 109.985 67.5362 109.62 67.8218C108.022 69.0718 106.575 70.5168 105.32 72.1194C105.034 72.4852 104.856 72.9232 104.805 73.3845C104.754 73.8458 104.832 74.3123 105.03 74.7319L106.982 78.8469C106.665 79.5109 106.385 80.192 106.143 80.8869L101.847 82.4144C101.41 82.5706 101.024 82.8455 100.733 83.2085C100.443 83.5714 100.259 84.008 100.202 84.4695C100.065 85.577 100 86.5695 100 87.4995C100 88.4295 100.065 89.4195 100.2 90.532C100.313 91.472 100.95 92.2695 101.845 92.587L106.14 94.112C106.385 94.8095 106.665 95.4921 106.982 96.1546L105.03 100.267C104.83 100.686 104.752 101.152 104.803 101.613C104.854 102.075 105.033 102.512 105.32 102.877C106.57 104.475 108.015 105.922 109.618 107.177C110.363 107.76 111.377 107.872 112.23 107.467L116.345 105.515C117.005 105.83 117.688 106.112 118.385 106.355L119.912 110.65C120.23 111.542 121.027 112.18 121.967 112.295C123.08 112.435 124.07 112.5 125 112.5C125.93 112.5 126.92 112.435 128.033 112.3C128.494 112.244 128.931 112.061 129.294 111.77C129.657 111.479 129.932 111.093 130.087 110.655L131.613 106.36C132.31 106.115 132.993 105.835 133.655 105.517L137.768 107.47C138.186 107.67 138.653 107.749 139.114 107.698C139.575 107.646 140.013 107.467 140.378 107.18C141.975 105.93 143.423 104.485 144.677 102.882C145.26 102.137 145.372 101.125 144.967 100.27L143.015 96.1546C143.33 95.4946 143.613 94.812 143.855 94.1145L148.15 92.587C149.042 92.2695 149.68 91.472 149.795 90.532C149.935 89.4195 150 88.4295 150 87.4995C150 86.5695 149.935 85.5795 149.8 84.467C149.744 84.0049 149.561 83.5675 149.27 83.204C148.98 82.8405 148.594 82.5653 148.155 82.4094ZM144.975 88.412L141.012 89.8195C140.634 89.9538 140.294 90.1773 140.02 90.4711C139.746 90.7648 139.547 91.1201 139.44 91.507C139.117 92.6821 138.651 93.8131 138.053 94.8745C137.652 95.5821 137.622 96.4421 137.97 97.1771L139.765 100.96C139.35 101.415 138.915 101.85 138.462 102.262L134.68 100.467C134.318 100.296 133.919 100.214 133.519 100.228C133.118 100.243 132.727 100.353 132.378 100.55C131.327 101.145 130.195 101.61 129.012 101.937C128.626 102.045 128.27 102.244 127.976 102.518C127.682 102.791 127.458 103.131 127.323 103.51L125.915 107.472C125.307 107.505 124.698 107.505 124.09 107.472L122.683 103.51C122.548 103.131 122.325 102.791 122.031 102.517C121.737 102.243 121.382 102.044 120.995 101.937C119.82 101.614 118.689 101.148 117.627 100.55C117.278 100.354 116.887 100.244 116.486 100.23C116.086 100.215 115.688 100.297 115.325 100.467L111.543 102.262C111.089 101.848 110.654 101.414 110.24 100.96L112.035 97.1771C112.207 96.8148 112.289 96.4165 112.275 96.0157C112.26 95.615 112.15 95.2236 111.952 94.8745C111.354 93.8139 110.888 92.6837 110.565 91.5095C110.457 91.1226 110.258 90.7671 109.985 90.473C109.711 90.1789 109.371 89.9548 108.993 89.8195L105.03 88.412C104.988 87.8044 104.986 87.1948 105.025 86.587L108.988 85.177C109.366 85.043 109.706 84.8196 109.98 84.5258C110.253 84.232 110.451 83.8764 110.557 83.4895C110.882 82.3145 111.349 81.1836 111.947 80.1219C112.347 79.4144 112.378 78.5544 112.03 77.8194L110.235 74.0369C110.65 73.5819 111.085 73.1469 111.538 72.7344L115.32 74.5294C116.055 74.8794 116.915 74.8494 117.622 74.4469C118.673 73.8519 119.805 73.3869 120.988 73.0594C121.772 72.8419 122.402 72.2544 122.677 71.4869L124.085 67.5243C124.69 67.4918 125.305 67.4918 125.91 67.5243L127.317 71.4869C127.452 71.8652 127.675 72.2056 127.969 72.4794C128.263 72.7531 128.618 72.952 129.005 73.0594C130.18 73.3822 131.311 73.8482 132.372 74.4469C132.721 74.6449 133.113 74.7558 133.514 74.7701C133.914 74.7845 134.313 74.7019 134.675 74.5294L138.458 72.7344C138.913 73.1494 139.348 73.5844 139.76 74.0369L137.965 77.8194C137.793 78.1817 137.711 78.58 137.725 78.9807C137.74 79.3815 137.85 79.7729 138.048 80.1219C138.643 81.1719 139.107 82.3044 139.435 83.487C139.652 84.272 140.24 84.902 141.008 85.177L144.97 86.5845C145.012 87.1929 145.013 87.8034 144.975 88.412Z" fill="#E6992A"/>
<path d="M49.9997 127.5C65.1622 127.5 77.4997 115.162 77.4997 99.9996C77.4997 84.8369 65.1622 72.4993 49.9997 72.4993C34.8372 72.4993 22.4997 84.8369 22.4997 99.9996C22.4997 115.162 34.8372 127.5 49.9997 127.5ZM49.9997 77.4994C62.4047 77.4994 72.4997 87.5945 72.4997 99.9996C72.4997 112.405 62.4047 122.5 49.9997 122.5C37.5947 122.5 27.4997 112.405 27.4997 99.9996C27.4997 87.5945 37.5947 77.4994 49.9997 77.4994ZM0.0546875 58.3967L3.89469 61.5992C9.52022 54.8321 16.5682 49.3881 24.537 45.6547C32.5059 41.9213 41.1997 39.9903 49.9997 39.9991C51.2722 39.9991 52.5422 40.0716 53.8122 40.1516L50.7322 43.2316L54.2672 46.7666L61.7672 39.2666C61.9996 39.0346 62.1839 38.7591 62.3097 38.4558C62.4355 38.1525 62.5002 37.8274 62.5002 37.499C62.5002 37.1707 62.4355 36.8456 62.3097 36.5423C62.1839 36.239 61.9996 35.9635 61.7672 35.7315L54.2672 28.2315L50.7322 31.7665L54.1297 35.164C52.7551 35.0653 51.3778 35.0103 49.9997 34.999C40.4669 34.9895 31.0491 37.0812 22.4166 41.1253C13.7841 45.1693 6.14904 51.0664 0.0546875 58.3967ZM102.5 17.4989C95.6072 17.4989 89.9997 23.1064 89.9997 29.999C89.9997 36.8915 95.6072 42.4991 102.5 42.4991C109.392 42.4991 115 36.8915 115 29.999C115 23.1064 109.392 17.4989 102.5 17.4989ZM102.5 37.499C98.3647 37.499 94.9997 34.134 94.9997 29.999C94.9997 25.8639 98.3647 22.4989 102.5 22.4989C106.635 22.4989 110 25.8639 110 29.999C110 34.134 106.635 37.499 102.5 37.499ZM125 77.4994C119.485 77.4994 115 81.9844 115 87.4995C115 93.0145 119.485 97.4995 125 97.4995C130.515 97.4995 135 93.0145 135 87.4995C135 81.9844 130.515 77.4994 125 77.4994ZM125 92.4995C122.242 92.4995 120 90.257 120 87.4995C120 84.7419 122.242 82.4994 125 82.4994C127.757 82.4994 130 84.7419 130 87.4995C130 90.257 127.757 92.4995 125 92.4995ZM147.99 7.5488L135.49 5.04878C135.168 4.98358 134.836 4.98261 134.514 5.04591C134.191 5.10921 133.885 5.23553 133.611 5.41764C133.338 5.59975 133.103 5.83405 132.921 6.1071C132.738 6.38015 132.611 6.68658 132.547 7.00879L130.047 19.5089L134.95 20.4914L136.297 13.7613C138.732 18.8281 139.998 24.3774 140 29.999C140.032 38.5245 137.128 46.8012 131.775 53.4367L135.677 56.5642C141.704 49.0207 144.991 39.6544 145 29.999C145 23.4514 143.487 16.9964 140.61 11.1713L147.01 12.4513L147.99 7.5488Z" fill="#E6992A"/>
</svg>
