<svg width="21" height="18" viewBox="0 0 21 18" fill="none" xmlns="http://www.w3.org/2000/svg">
<path d="M10.5 18C10.3938 18 10.2876 17.9728 10.1924 17.9183C10.0891 17.8592 7.63343 16.4462 5.14255 14.3171C3.66624 13.0552 2.48778 11.8036 1.63999 10.5971C0.542906 9.03595 -0.00879439 7.53429 0.000105988 6.1338C0.0105239 4.50418 0.599466 2.97162 1.65857 1.8184C2.73556 0.645753 4.17282 0 5.7057 0C7.67022 0 9.46633 1.09062 10.5 2.81829C11.5338 1.09066 13.3299 0 15.2944 0C16.7426 0 18.1243 0.582666 19.1851 1.64068C20.3493 2.80175 21.0107 4.44227 20.9999 6.14153C20.991 7.53958 20.4289 9.03896 19.3294 10.598C18.479 11.8038 17.3022 13.0549 15.8317 14.3164C13.3499 16.4453 10.9119 17.8583 10.8093 17.9174C10.7154 17.9715 10.6087 18 10.5 18Z" fill="#E6992A"/>
</svg>
