<svg width="180" height="181" viewBox="0 0 180 181" fill="none" xmlns="http://www.w3.org/2000/svg">
<path d="M0.534137 125.223C0.585252 125.866 0.841475 126.475 1.26482 126.961C1.68817 127.446 2.2561 127.782 2.88443 127.917L13.3053 130.173C13.6731 131.956 14.1395 133.714 14.7047 135.43L6.81654 142.6C6.3403 143.033 6.01591 143.609 5.89149 144.241C5.76707 144.874 5.84923 145.53 6.1258 146.113C7.49086 149.021 9.08678 151.815 10.8982 154.468C11.2634 154.997 11.7888 155.395 12.3968 155.602C13.0048 155.809 13.663 155.814 14.2741 155.617L24.4019 152.344C25.6129 153.706 26.9017 154.999 28.2592 156.214L24.9969 166.375C24.8001 166.988 24.8052 167.648 25.0115 168.258C25.2177 168.868 25.6142 169.395 26.1422 169.762C28.7857 171.579 31.5706 173.18 34.4699 174.55C35.0502 174.827 35.7043 174.91 36.335 174.785C36.9657 174.66 37.5396 174.335 37.9714 173.857L45.118 165.943C46.8313 166.507 48.5836 166.978 50.3598 167.347L52.6084 177.802C52.8865 179.095 53.9779 180.052 55.2906 180.16C56.8814 180.286 58.4752 180.4 60.0988 180.4C61.7225 180.4 63.3163 180.286 64.9071 180.16C65.5478 180.109 66.155 179.852 66.6387 179.427C67.1224 179.002 67.4568 178.432 67.5923 177.802L69.8409 167.347C71.6135 166.98 73.3637 166.511 75.0827 165.943L82.2293 173.857C82.6609 174.335 83.2347 174.661 83.8656 174.786C84.4964 174.911 85.1506 174.828 85.7308 174.55C88.6295 173.179 91.4143 171.578 94.0585 169.762C94.5865 169.395 94.983 168.868 95.1892 168.258C95.3955 167.648 95.4006 166.988 95.2038 166.375L91.9414 156.214C93.299 154.999 94.5878 153.706 95.7988 152.347L105.927 155.62C106.538 155.818 107.196 155.813 107.804 155.606C108.412 155.399 108.938 155.001 109.303 154.471C111.114 151.818 112.71 149.024 114.075 146.116C114.351 145.533 114.434 144.877 114.309 144.244C114.185 143.612 113.86 143.036 113.384 142.603L105.496 135.433C106.058 133.714 106.528 131.956 106.895 130.173L117.316 127.917C118.605 127.638 119.559 126.543 119.667 125.226C119.789 123.627 119.903 122.028 119.903 120.399C119.903 118.77 119.789 117.171 119.664 115.575C119.612 114.933 119.356 114.323 118.933 113.838C118.51 113.353 117.942 113.017 117.313 112.881L106.892 110.625C106.527 108.847 106.059 107.091 105.493 105.366L113.381 98.1962C113.857 97.763 114.182 97.1872 114.306 96.5544C114.431 95.9216 114.348 95.2655 114.072 94.6832C112.706 91.775 111.11 88.981 109.3 86.3281C108.935 85.798 108.409 85.4 107.801 85.193C107.193 84.986 106.535 84.9812 105.924 85.1791L95.7958 88.4521C94.5843 87.0897 93.2965 85.7976 91.9385 84.5821L95.2008 74.421C95.3976 73.8079 95.3925 73.1475 95.1862 72.5376C94.98 71.9276 94.5835 71.4004 94.0555 71.034C91.412 69.2167 88.6271 67.6155 85.7278 66.246C85.1477 65.9675 84.4934 65.8845 83.8624 66.0094C83.2315 66.1343 82.6576 66.4603 82.2263 66.939L75.0797 74.853C73.3602 74.2865 71.6101 73.8178 69.8379 73.449L67.5893 62.9939C67.4535 62.3642 67.1194 61.795 66.6364 61.3704C66.1534 60.9458 65.5471 60.6883 64.9071 60.6359C61.7056 60.3809 58.4891 60.3809 55.2876 60.6359C54.6469 60.6872 54.0397 60.9443 53.556 61.369C53.0723 61.7937 52.7379 62.3635 52.6024 62.9939L50.3538 73.449C48.5776 73.818 46.8254 74.286 45.115 74.853L37.9684 66.939C37.5366 66.4612 36.9627 66.1357 36.332 66.0109C35.7013 65.886 35.0472 65.9685 34.4669 66.246C31.5676 67.6155 28.7827 69.2167 26.1392 71.034C25.6112 71.4004 25.2147 71.9276 25.0085 72.5376C24.8022 73.1475 24.7971 73.8079 24.9939 74.421L28.2562 84.5821C26.8987 85.7971 25.6099 87.0901 24.3989 88.4521L14.2741 85.1791C13.6631 84.9807 13.0045 84.9853 12.3963 85.1923C11.7881 85.3993 11.2627 85.7976 10.8982 86.3281C9.08678 88.9803 7.49086 91.7744 6.1258 94.6832C5.84923 95.2655 5.76707 95.9216 5.89149 96.5544C6.01591 97.1872 6.3403 97.763 6.81654 98.1962L14.7047 105.366C14.14 107.092 13.6728 108.847 13.3053 110.625L2.88443 112.881C1.59566 113.16 0.641784 114.255 0.534137 115.572C0.408549 117.171 0.294922 118.77 0.294922 120.399C0.294922 122.028 0.408549 123.627 0.534137 125.223ZM6.33811 118.272L16.5108 116.067C17.0982 115.94 17.6339 115.638 18.0478 115.201C18.4617 114.764 18.7347 114.212 18.8312 113.616C19.2797 110.85 20.0033 108.135 20.9811 105.543C21.1941 104.98 21.2327 104.365 21.0919 103.779C20.951 103.192 20.6373 102.663 20.1917 102.258L12.5099 95.2742C13.1797 93.9872 13.8794 92.7542 14.603 91.5872L24.4587 94.7732C25.6249 95.1482 26.9107 94.7732 27.6911 93.8192C29.4611 91.6488 31.4425 89.661 33.6057 87.8851C34.5566 87.1051 34.9363 85.8181 34.5566 84.6421L31.381 74.754C32.5442 74.025 33.7702 73.323 35.056 72.654L42.0171 80.3641C42.8454 81.2791 44.1491 81.5941 45.2944 81.1561C47.8967 80.1683 50.5915 79.4456 53.338 78.9991C53.9313 78.9023 54.4817 78.6284 54.9174 78.2131C55.3532 77.7979 55.6542 77.2605 55.781 76.671L57.9758 66.465C59.3842 66.39 60.8165 66.387 62.2189 66.465L64.4167 76.671C64.5435 77.2605 64.8445 77.7979 65.2803 78.2131C65.716 78.6284 66.2664 78.9023 66.8597 78.9991C69.6166 79.4491 72.3228 80.1751 74.9063 81.1561C75.4681 81.3702 76.0812 81.4091 76.6654 81.2678C77.2497 81.1265 77.7777 80.8115 78.1806 80.3641L85.1417 72.657C86.4245 73.329 87.6535 74.031 88.8167 74.757L85.6411 84.6451C85.2643 85.8211 85.6411 87.1051 86.592 87.8881C88.7552 89.664 90.7366 91.6518 92.5066 93.8222C92.8864 94.29 93.3984 94.6316 93.9754 94.8019C94.5524 94.9722 95.1672 94.9632 95.739 94.7762L105.595 91.5902C106.321 92.7572 107.021 93.9872 107.688 95.2742L100.003 102.258C99.5571 102.663 99.2433 103.193 99.1025 103.78C98.9616 104.367 99.0004 104.982 99.2136 105.546C100.191 108.132 100.915 110.847 101.364 113.616C101.46 114.212 101.733 114.764 102.147 115.201C102.561 115.638 103.096 115.94 103.684 116.067L113.857 118.269C113.895 118.974 113.922 119.685 113.922 120.399C113.922 121.113 113.898 121.824 113.86 122.526L103.687 124.731C103.099 124.859 102.564 125.161 102.15 125.598C101.736 126.035 101.463 126.587 101.367 127.182C100.92 129.939 100.2 132.643 99.2166 135.256C99.0036 135.819 98.965 136.434 99.1059 137.02C99.2467 137.606 99.5604 138.136 100.006 138.541L107.688 145.525C107.018 146.812 106.318 148.045 105.595 149.212L95.739 146.026C95.1672 145.838 94.5523 145.829 93.9752 145.999C93.3982 146.17 92.8861 146.511 92.5066 146.98C90.7358 149.149 88.7545 151.137 86.592 152.914C85.6411 153.694 85.2643 154.981 85.6411 156.154L88.8167 166.042C87.6535 166.771 86.4275 167.473 85.1447 168.142L78.1836 160.432C77.7791 159.986 77.2505 159.672 76.6662 159.531C76.0819 159.389 75.4688 159.427 74.9063 159.64C72.3288 160.621 69.6226 161.347 66.8627 161.797C66.2694 161.894 65.719 162.167 65.2832 162.583C64.8475 162.998 64.5465 163.535 64.4197 164.125L62.2249 174.331C60.8165 174.406 59.3842 174.409 57.9818 174.331L55.784 164.125C55.6572 163.535 55.3562 162.998 54.9204 162.583C54.4846 162.167 53.9342 161.894 53.341 161.797C50.5937 161.349 47.8981 160.626 45.2944 159.64C44.7326 159.426 44.1195 159.387 43.5352 159.528C42.951 159.669 42.4229 159.984 42.0201 160.432L35.0589 168.139C33.8082 167.485 32.5823 166.785 31.384 166.039L34.5596 156.151C34.9363 154.975 34.5596 153.691 33.6087 152.908C31.4455 151.132 29.4641 149.144 27.6941 146.974C27.3135 146.507 26.8014 146.166 26.2247 145.996C25.6481 145.826 25.0336 145.834 24.4617 146.02L14.606 149.206C13.8596 148.005 13.1613 146.775 12.5129 145.519L20.1977 138.535C20.6435 138.13 20.9574 137.599 21.0982 137.013C21.239 136.426 21.2003 135.811 20.9871 135.247C20.0025 132.636 19.2822 129.932 18.8371 127.176C18.7407 126.581 18.4677 126.029 18.0538 125.592C17.6399 125.155 17.1042 124.853 16.5167 124.725L6.33811 122.529C6.30223 121.824 6.27531 121.113 6.27531 120.399C6.27531 119.685 6.29924 118.974 6.33811 118.272ZM156.44 43.1038C156.991 42.9297 157.479 42.5995 157.847 42.1528C158.215 41.7062 158.446 41.1622 158.512 40.5867C158.692 39.0717 158.775 37.7007 158.775 36.3987C158.775 35.0967 158.692 33.7257 158.515 32.2107C158.449 31.6352 158.218 31.0913 157.85 30.6446C157.482 30.198 156.994 29.8677 156.443 29.6937L148.151 27.0806C147.904 26.4014 147.629 25.7328 147.326 25.0766L151.345 17.3516C151.611 16.838 151.724 16.2583 151.67 15.6819C151.616 15.1055 151.397 14.5571 151.04 14.1025C149.303 11.9007 147.317 9.90833 145.122 8.16548C144.669 7.80656 144.123 7.58646 143.548 7.53165C142.974 7.47683 142.396 7.58962 141.884 7.85647L134.178 11.8885C133.523 11.5871 132.857 11.3118 132.181 11.0635L129.576 2.74443C129.403 2.19187 129.073 1.70151 128.628 1.33258C128.183 0.963647 127.641 0.73193 127.067 0.665414C124.295 0.311398 121.488 0.311398 118.716 0.665414C118.142 0.73193 117.6 0.963647 117.155 1.33258C116.71 1.70151 116.38 2.19187 116.207 2.74443L113.602 11.0635C112.924 11.3125 112.257 11.5885 111.605 11.8915L103.905 7.85947C103.393 7.59295 102.815 7.48006 102.241 7.53433C101.667 7.5886 101.12 7.80772 100.667 8.16548C98.4722 9.90833 96.4864 11.9007 94.7492 14.1025C94.3908 14.5565 94.171 15.1048 94.1163 15.6813C94.0617 16.2579 94.1745 16.8379 94.4413 17.3516L98.4571 25.0766C98.1581 25.7306 97.883 26.3996 97.6348 27.0806L89.343 29.6937C88.7922 29.8677 88.3035 30.198 87.9357 30.6446C87.568 31.0913 87.3371 31.6352 87.2708 32.2107C87.0943 33.7257 87.0106 35.0967 87.0106 36.3987C87.0106 37.7007 87.0943 39.0717 87.2708 40.5867C87.3371 41.1622 87.568 41.7062 87.9357 42.1528C88.3035 42.5995 88.7922 42.9297 89.343 43.1038L97.6348 45.7168C97.883 46.3978 98.1581 47.0668 98.4601 47.7208L94.4413 55.4459C93.897 56.4929 94.0166 57.7649 94.7463 58.6949C96.4834 60.8968 98.4692 62.8891 100.664 64.6319C101.588 65.367 102.859 65.484 103.902 64.9409L111.602 60.9119C112.254 61.2119 112.921 61.4879 113.599 61.7369L116.204 70.056C116.377 70.6086 116.707 71.0989 117.152 71.4678C117.597 71.8368 118.139 72.0685 118.713 72.135C120.229 72.315 121.595 72.399 122.893 72.399C124.191 72.399 125.557 72.315 127.067 72.138C127.641 72.0715 128.183 71.8398 128.628 71.4708C129.073 71.1019 129.403 70.6115 129.576 70.059L132.181 61.7399C132.859 61.4909 133.526 61.2149 134.178 60.9119L141.878 64.9439C142.389 65.212 142.967 65.3257 143.542 65.2714C144.117 65.2171 144.663 64.9971 145.116 64.6379C147.311 62.8951 149.297 60.9028 151.034 58.7009C151.392 58.2469 151.612 57.6986 151.667 57.1221C151.721 56.5456 151.608 55.9655 151.342 55.4519L147.323 47.7268C147.625 47.0728 147.9 46.4038 148.148 45.7228L156.44 43.1038ZM144.898 40.4517C143.953 40.7517 143.217 41.4987 142.93 42.4528C142.528 43.7968 141.993 45.0972 141.334 46.3348C141.102 46.7656 140.979 47.247 140.976 47.7366C140.973 48.2262 141.089 48.709 141.316 49.1428L145.11 56.4389C144.401 57.2279 143.651 57.9809 142.867 58.6889L135.595 54.8819C135.163 54.6556 134.682 54.5389 134.194 54.542C133.706 54.5452 133.226 54.668 132.796 54.8999C131.563 55.5615 130.267 56.0981 128.927 56.5019C128.46 56.6432 128.034 56.8969 127.686 57.2409C127.339 57.5849 127.08 58.0088 126.933 58.4759L124.469 66.348C123.419 66.414 122.367 66.414 121.317 66.348L118.853 58.4759C118.706 58.0088 118.447 57.5849 118.1 57.2409C117.752 56.8969 117.326 56.6432 116.859 56.5019C115.52 56.0997 114.224 55.563 112.992 54.8999C112.562 54.6675 112.082 54.5444 111.594 54.5412C111.105 54.5381 110.624 54.6551 110.191 54.8819L102.918 58.6889C102.133 57.9784 101.384 57.2274 100.676 56.4389L104.47 49.1428C104.696 48.7088 104.812 48.226 104.809 47.7366C104.806 47.2471 104.684 46.7659 104.452 46.3348C103.793 45.0972 103.258 43.7968 102.856 42.4528C102.715 41.9837 102.462 41.5563 102.119 41.2076C101.776 40.8589 101.354 40.5994 100.888 40.4517L93.0418 37.9797C92.9728 36.9269 92.9728 35.8706 93.0418 34.8177L100.888 32.3457C101.833 32.0457 102.569 31.2987 102.856 30.3447C103.262 28.9856 103.801 27.6806 104.452 26.4656C104.684 26.0342 104.807 25.5524 104.81 25.0624C104.813 24.5723 104.696 24.089 104.47 23.6546L100.676 16.3585C101.384 15.5695 102.135 14.8165 102.918 14.1085L110.191 17.9156C111.067 18.3746 112.119 18.3656 112.989 17.8976C114.223 17.236 115.519 16.6993 116.859 16.2955C117.807 16.0105 118.554 15.2695 118.853 14.3215L121.317 6.44946C122.367 6.38346 123.419 6.38346 124.469 6.44946L126.933 14.3215C127.232 15.2695 127.976 16.0075 128.927 16.2955C130.282 16.7035 131.582 17.2436 132.794 17.8976C133.224 18.1299 133.704 18.253 134.192 18.2562C134.681 18.2593 135.162 18.1424 135.595 17.9156L142.867 14.1085C143.654 14.8195 144.404 15.5725 145.11 16.3585L141.316 23.6546C141.09 24.0886 140.974 24.5714 140.977 25.0609C140.98 25.5503 141.102 26.0316 141.334 26.4626C141.985 27.6836 142.524 28.9886 142.93 30.3447C143.214 31.2957 143.953 32.0457 144.898 32.3457L152.744 34.8177C152.813 35.8706 152.813 36.9269 152.744 37.9797L144.898 40.4517ZM177.5 99.2912L172.363 97.4612C172.072 96.6264 171.735 95.8082 171.355 95.0102L173.69 90.0752C173.929 89.5725 174.023 89.0129 173.962 88.4595C173.901 87.9061 173.687 87.3809 173.344 86.9431C171.844 85.021 170.118 83.2883 168.203 81.7831C167.766 81.4397 167.242 81.2253 166.69 81.1638C166.138 81.1023 165.58 81.1963 165.079 81.4351L160.157 83.7781C159.363 83.3972 158.548 83.0607 157.717 82.7701L155.89 77.6161C155.703 77.0906 155.374 76.6277 154.94 76.279C154.506 75.9304 153.984 75.7098 153.432 75.642C151.023 75.321 148.583 75.321 146.175 75.642C145.622 75.7088 145.1 75.929 144.665 76.2778C144.231 76.6266 143.903 77.09 143.717 77.6161L141.893 82.7701C141.058 83.0641 140.242 83.4001 139.45 83.7811L134.531 81.4381C134.029 81.1999 133.472 81.1063 132.921 81.1677C132.369 81.2292 131.846 81.4433 131.409 81.7861C129.498 83.2861 127.767 85.0201 126.266 86.9431C125.924 87.3821 125.711 87.9078 125.65 88.4613C125.588 89.0149 125.682 89.5747 125.919 90.0782L128.254 95.0162C127.875 95.813 127.539 96.6303 127.25 97.4642L122.113 99.2972C121.589 99.4846 121.127 99.8145 120.78 100.25C120.432 100.686 120.213 101.21 120.145 101.763C119.981 103.092 119.903 104.283 119.903 105.399C119.903 106.515 119.981 107.703 120.142 109.038C120.277 110.166 121.039 111.123 122.11 111.504L127.247 113.334C127.54 114.171 127.875 114.99 128.254 115.785L125.919 120.72C125.68 121.223 125.586 121.783 125.647 122.336C125.709 122.889 125.923 123.415 126.266 123.852C127.761 125.769 129.489 127.506 131.406 129.012C132.297 129.711 133.511 129.846 134.531 129.36L139.453 127.017C140.242 127.395 141.058 127.734 141.893 128.025L143.72 133.18C144.099 134.251 145.053 135.016 146.178 135.154C147.508 135.322 148.692 135.4 149.805 135.4C150.917 135.4 152.101 135.322 153.432 135.16C153.984 135.093 154.507 134.873 154.941 134.524C155.375 134.175 155.704 133.712 155.89 133.186L157.714 128.031C158.548 127.737 159.364 127.401 160.157 127.02L165.076 129.363C165.576 129.604 166.134 129.699 166.686 129.637C167.238 129.575 167.761 129.36 168.197 129.015C170.108 127.515 171.839 125.781 173.341 123.858C174.037 122.964 174.172 121.749 173.687 120.723L171.352 115.785C171.729 114.993 172.067 114.174 172.357 113.337L177.494 111.504C178.561 111.123 179.324 110.166 179.462 109.038C179.629 107.703 179.707 106.515 179.707 105.399C179.707 104.283 179.629 103.095 179.467 101.76C179.401 101.206 179.182 100.681 178.834 100.245C178.487 99.8084 178.024 99.4782 177.5 99.2912ZM173.696 106.494L168.957 108.183C168.504 108.345 168.097 108.613 167.77 108.965C167.442 109.318 167.204 109.744 167.076 110.208C166.69 111.618 166.133 112.976 165.417 114.249C164.938 115.098 164.902 116.13 165.318 117.012L167.465 121.551C166.968 122.097 166.448 122.619 165.907 123.114L161.383 120.96C160.949 120.755 160.473 120.657 159.994 120.674C159.515 120.691 159.047 120.823 158.629 121.059C157.373 121.773 156.018 122.331 154.604 122.724C154.141 122.854 153.716 123.093 153.364 123.421C153.013 123.749 152.744 124.158 152.583 124.611L150.899 129.366C150.172 129.405 149.443 129.405 148.716 129.366L147.033 124.611C146.872 124.157 146.605 123.749 146.254 123.42C145.902 123.092 145.477 122.853 145.014 122.724C143.609 122.337 142.256 121.778 140.987 121.059C140.569 120.824 140.101 120.693 139.622 120.676C139.143 120.658 138.667 120.756 138.233 120.96L133.709 123.114C133.166 122.618 132.646 122.096 132.151 121.551L134.298 117.012C134.503 116.578 134.602 116.1 134.584 115.619C134.567 115.138 134.435 114.668 134.199 114.249C133.483 112.977 132.926 111.62 132.539 110.211C132.41 109.747 132.172 109.32 131.845 108.968C131.518 108.615 131.111 108.346 130.659 108.183L125.919 106.494C125.869 105.765 125.867 105.034 125.913 104.304L130.653 102.612C131.105 102.452 131.512 102.183 131.839 101.831C132.166 101.478 132.403 101.052 132.53 100.587C132.918 99.1773 133.477 97.8202 134.193 96.5462C134.671 95.6972 134.707 94.6652 134.292 93.7832L132.145 89.2441C132.641 88.6981 133.161 88.1761 133.703 87.6811L138.227 89.8352C139.106 90.2552 140.134 90.2192 140.981 89.7362C142.237 89.0221 143.591 88.4641 145.005 88.0711C145.944 87.8101 146.698 87.1051 147.027 86.1841L148.71 81.4291C149.434 81.3901 150.17 81.3901 150.893 81.4291L152.577 86.1841C152.737 86.6381 153.005 87.0467 153.356 87.3751C153.707 87.7036 154.132 87.9423 154.595 88.0711C156.001 88.4585 157.353 89.0177 158.623 89.7362C159.04 89.9738 159.508 90.1068 159.988 90.1241C160.467 90.1413 160.944 90.0422 161.377 89.8352L165.901 87.6811C166.445 88.1791 166.965 88.7011 167.459 89.2441L165.312 93.7832C165.106 94.2179 165.008 94.6959 165.025 95.1768C165.042 95.6577 165.174 96.1274 165.411 96.5462C166.122 97.8062 166.678 99.1652 167.07 100.584C167.33 101.526 168.033 102.282 168.951 102.612L173.69 104.301C173.74 105.031 173.742 105.764 173.696 106.494Z" fill="#E6992A"/>
<path d="M60.0975 153.4C78.2331 153.4 92.9897 138.595 92.9897 120.399C92.9897 102.204 78.2331 87.3992 60.0975 87.3992C41.962 87.3992 27.2054 102.204 27.2054 120.399C27.2054 138.595 41.962 153.4 60.0975 153.4ZM60.0975 93.3992C74.9349 93.3992 87.0093 105.513 87.0093 120.399C87.0093 135.286 74.9349 147.4 60.0975 147.4C45.2602 147.4 33.1857 135.286 33.1857 120.399C33.1857 105.513 45.2602 93.3992 60.0975 93.3992ZM0.359375 70.476L4.95232 74.319C11.6809 66.1984 20.1108 59.6656 29.6422 55.1856C39.1735 50.7055 49.572 48.3883 60.0975 48.3988C61.6195 48.3988 63.1385 48.4858 64.6576 48.5818L60.9736 52.2779L65.2018 56.5199L74.1724 47.5198C74.4503 47.2415 74.6708 46.9108 74.8212 46.5469C74.9717 46.1829 75.0491 45.7928 75.0491 45.3988C75.0491 45.0048 74.9717 44.6147 74.8212 44.2507C74.6708 43.8868 74.4503 43.5562 74.1724 43.2778L65.2018 34.2777L60.9736 38.5197L65.0373 42.5968C63.3932 42.4783 61.7458 42.4123 60.0975 42.3988C48.6955 42.3874 37.4312 44.8974 27.106 49.7503C16.7809 54.6031 7.6487 61.6796 0.359375 70.476ZM122.892 21.3986C114.648 21.3986 107.941 28.1277 107.941 36.3987C107.941 44.6698 114.648 51.3989 122.892 51.3989C131.136 51.3989 137.843 44.6698 137.843 36.3987C137.843 28.1277 131.136 21.3986 122.892 21.3986ZM122.892 45.3988C117.946 45.3988 113.921 41.3608 113.921 36.3987C113.921 31.4367 117.946 27.3987 122.892 27.3987C127.837 27.3987 131.862 31.4367 131.862 36.3987C131.862 41.3608 127.837 45.3988 122.892 45.3988ZM149.803 93.3992C143.207 93.3992 137.843 98.7812 137.843 105.399C137.843 112.017 143.207 117.399 149.803 117.399C156.4 117.399 161.764 112.017 161.764 105.399C161.764 98.7812 156.4 93.3992 149.803 93.3992ZM149.803 111.399C146.505 111.399 143.823 108.708 143.823 105.399C143.823 102.09 146.505 99.3993 149.803 99.3993C153.102 99.3993 155.784 102.09 155.784 105.399C155.784 108.708 153.102 111.399 149.803 111.399ZM177.301 9.45851L162.35 6.45848C161.965 6.38025 161.568 6.37908 161.183 6.45504C160.797 6.531 160.431 6.68259 160.104 6.90112C159.777 7.11965 159.496 7.40081 159.277 7.72847C159.059 8.05613 158.907 8.42384 158.831 8.8105L155.841 23.8106L161.704 24.9896L163.316 16.9136C166.229 22.9937 167.742 29.6528 167.745 36.3987C167.784 46.6294 164.31 56.5614 157.907 64.524L162.575 68.277C169.783 59.2247 173.714 47.9852 173.725 36.3987C173.725 28.5417 171.916 20.7956 168.474 13.8055L176.129 15.3416L177.301 9.45851Z" fill="#E6992A"/>
</svg>
