<svg width="140" height="140" viewBox="0 0 140 140" fill="none" xmlns="http://www.w3.org/2000/svg">
<path d="M14.898 12.7291C12.1162 12.7291 9.8794 10.5878 9.8794 7.9249C9.8794 7.04641 9.16246 6.36009 8.24478 6.36009C7.35578 6.36009 6.61016 7.04641 6.61016 7.9249C6.61016 10.5878 4.37332 12.7291 1.5916 12.7291C-0.530534 12.7291 -0.530534 15.8313 1.5916 15.8313C4.37332 15.8313 6.61016 18.0001 6.61016 20.6355C6.63884 22.667 9.82205 22.667 9.85072 20.6355C9.85072 17.9726 12.1162 15.8313 14.8693 15.8313C17.0201 15.8038 17.0488 12.784 14.898 12.7291ZM8.24478 15.9411C7.75726 15.3097 7.18371 14.7332 6.52413 14.2665C7.18371 13.7998 7.75726 13.2507 8.24478 12.6193C8.7323 13.2507 9.30585 13.7998 9.99411 14.2665C9.33453 14.7606 8.7323 15.3097 8.24478 15.9411ZM27.4874 31.8637C29.2367 31.8637 30.6706 33.2363 30.6706 34.9109C30.6706 35.762 31.3875 36.4757 32.3052 36.4757C33.2229 36.4757 33.9398 35.7894 33.9398 34.9109C33.9398 33.2363 35.3737 31.8637 37.123 31.8637C39.2452 31.8362 39.2452 28.789 37.123 28.7615C35.3737 28.7615 33.9398 27.3889 33.9398 25.7143C33.9398 24.8632 33.2229 24.1495 32.3052 24.1495C31.3875 24.1495 30.6706 24.8358 30.6706 25.7143C30.6706 27.3889 29.2367 28.7615 27.4874 28.7615C26.5984 28.7615 25.8528 29.4478 25.8528 30.3263C25.8528 31.1499 26.5984 31.8637 27.4874 31.8637ZM32.2765 29.8047C32.4486 29.9969 32.6207 30.1616 32.8214 30.3263C32.6493 30.491 32.4486 30.6558 32.2765 30.8479L31.7317 30.3263C31.9611 30.1616 32.1331 29.9694 32.2765 29.8047ZM11.2272 51.6297C9.96543 51.6297 8.96172 52.5905 8.96172 53.7984C8.96172 54.6495 8.24478 55.3632 7.3271 55.3632C6.40942 55.3632 5.69248 54.6769 5.69248 53.7984C5.69248 52.5905 4.68877 51.6297 3.42696 51.6297C2.53796 51.6297 1.79234 50.9433 1.79234 50.0648C1.79234 49.2138 2.50928 48.5 3.42696 48.5C4.66009 48.5 5.69248 47.5392 5.69248 46.3313C5.69248 44.2998 8.93304 44.2998 8.93304 46.3313C8.93304 47.5117 9.93676 48.5 11.1986 48.5C13.3494 48.5275 13.3494 51.6297 11.2272 51.6297ZM138.412 12.7291C135.659 12.7291 133.393 10.5878 133.393 7.9249C133.393 7.04641 132.676 6.36009 131.759 6.36009C130.841 6.36009 130.124 7.04641 130.124 7.9249C130.124 10.5878 127.859 12.7291 125.106 12.7291C122.983 12.7566 122.983 15.8038 125.106 15.8313C127.887 15.8313 130.124 18.0001 130.124 20.6355C130.153 22.667 133.336 22.667 133.365 20.6355C133.365 17.9726 135.63 15.8313 138.383 15.8313C140.534 15.8587 140.534 12.7291 138.412 12.7291ZM131.787 15.9411C131.3 15.3097 130.698 14.7332 130.038 14.2665C130.698 13.7998 131.3 13.2507 131.787 12.6193C132.275 13.2507 132.849 13.7998 133.508 14.2665C132.849 14.7606 132.275 15.3097 131.787 15.9411ZM102.938 31.8637C104.687 31.8637 106.121 33.2363 106.121 34.9109C106.121 35.762 106.838 36.4757 107.756 36.4757C108.645 36.4757 109.39 35.7894 109.39 34.9109C109.39 33.2363 110.824 31.8637 112.574 31.8637C114.696 31.8362 114.696 28.789 112.574 28.7615C110.824 28.7615 109.39 27.3889 109.39 25.7143C109.39 24.8632 108.673 24.1495 107.756 24.1495C106.867 24.1495 106.121 24.8358 106.121 25.7143C106.121 27.3889 104.687 28.7615 102.938 28.7615C102.049 28.7615 101.303 29.4478 101.303 30.3263C101.332 31.1499 102.049 31.8637 102.938 31.8637ZM107.756 29.8047C107.928 29.9969 108.1 30.1616 108.301 30.3263C108.129 30.491 107.928 30.6558 107.756 30.8479L107.211 30.3263C107.412 30.1616 107.584 29.9694 107.756 29.8047ZM136.577 51.6297C135.343 51.6297 134.311 52.5905 134.311 53.7984C134.311 54.6495 133.594 55.3632 132.676 55.3632C131.759 55.3632 131.042 54.6769 131.042 53.7984C131.042 52.5905 130.038 51.6297 128.776 51.6297C127.887 51.6297 127.142 50.9433 127.142 50.0648C127.142 49.2138 127.859 48.5 128.776 48.5C130.038 48.5 131.042 47.5392 131.042 46.3313C131.042 44.2998 134.282 44.2998 134.282 46.3313C134.282 47.5117 135.286 48.5 136.548 48.5C138.699 48.5275 138.699 51.6297 136.577 51.6297ZM51.1463 32.6324C51.4044 34.0874 52.8383 34.2521 54.4442 34.7462C55.6774 35.1031 56.9392 35.46 58.0002 36.2012C60.065 37.3817 61.0114 41.1976 63.3056 41.3898C65.227 41.2251 67.6359 39.825 69.7867 39.8799C71.1345 39.8799 72.425 40.3191 73.6582 40.7309C74.8053 41.0878 75.8663 41.5545 76.8414 41.3074C78.648 40.5113 79.7091 37.3268 81.6018 36.2012C82.6629 35.46 83.9247 35.1031 85.1578 34.7737C86.3049 34.4442 87.7388 34.2521 88.255 33.0991C88.6565 32.248 88.5705 31.2323 88.5418 30.3263C88.2263 27.8007 89.058 25.3848 90.836 23.5181C92.9294 21.1846 92.9294 20.1688 90.836 17.8628C90.0617 16.9294 89.2587 15.9136 88.8859 14.7606C87.9682 11.2192 90.6639 7.56801 85.1578 6.60717C83.9247 6.27774 82.6342 5.92085 81.6018 5.17963C79.7091 3.88935 79.1069 0.759736 76.8127 0.0459654C74.5185 -0.31092 72.2243 1.63822 69.8154 1.50096C67.3778 1.52841 65.227 -0.31092 62.8181 0.0459654C60.6673 1.06172 60.0937 3.9168 58.0289 5.15217C56.2796 6.52481 52.867 6.52481 51.4618 7.95235C50.5154 9.65442 51.5478 12.7566 50.7448 14.7606C50.3434 15.9136 49.5404 16.9294 48.7661 17.8628C47.9344 18.8785 47.1315 19.8394 47.1315 20.6904C47.3322 22.6121 50.1713 24.5613 50.7448 26.6202C51.4044 28.487 50.8309 30.793 51.1463 32.6324ZM86.7351 20.6904C86.7351 29.64 79.1356 36.915 69.7867 36.915C60.4378 36.915 52.8383 29.64 52.8383 20.6904C53.756 -0.859974 85.8174 -0.859974 86.7351 20.6904ZM67.1197 102.5L68.1808 98.7385V140L20.9776 113.892V77.7921L64.7108 103.433C64.9115 103.57 65.1409 103.598 65.3704 103.625C66.116 103.79 66.9476 103.213 67.1197 102.5ZM74.8913 103.433L118.624 77.7921V113.892L71.4213 140V98.7111L72.4824 102.5C72.6544 103.213 73.4861 103.762 74.2604 103.625C74.4611 103.598 74.6906 103.543 74.8913 103.433ZM119.284 61.3754L122.611 71.8074L75.0634 99.6994L71.6794 87.6751L119.284 61.3754ZM89.861 36.1463L99.3819 54.7867L92.4133 51.5747C92.0404 51.41 91.6103 51.163 91.2088 51.0531C90.3198 50.7237 89.2874 51.2728 89.0867 52.1787C88.6565 54.1279 87.6241 58.5752 87.1653 60.5518C84.3262 55.0063 81.4871 49.4609 78.6767 43.888C80.9136 42.7624 81.6305 40.1819 83.4659 38.7269C85.4733 37.6013 88.0543 37.5739 89.861 36.1463ZM116.99 59.0419L69.7867 85.1494L22.6122 59.0419L39.0444 49.955L35.2303 57.4771C34.5134 58.7399 36.062 60.2224 37.3811 59.536L47.705 54.7593C48.5653 58.3556 49.397 61.9793 50.2286 65.5756C50.5441 67.0032 52.3795 67.0855 53.1824 66.0149C57.0252 58.9595 60.4378 51.5473 64.2233 44.4096C66.0873 44.1351 67.8653 42.982 69.7867 42.982C71.7081 43.0644 73.4287 44.2174 75.3501 44.437C78.648 50.8884 81.9173 57.3398 85.2152 63.7912C85.6167 64.5873 85.9035 65.658 86.6491 66.2894C87.5667 67.0855 89.058 66.8385 89.3448 65.5756C89.7176 63.9559 91.4956 56.2143 91.8397 54.7593C95.3097 56.3515 98.751 57.9712 102.192 59.536C103.54 60.1949 105.06 58.7399 104.372 57.4496L104.314 57.3398L100.529 49.9276L116.99 59.0419ZM64.5387 99.6994L16.9914 71.8074L20.318 61.3754L67.9227 87.6751L64.5387 99.6994ZM48.1352 51.1081C45.5542 52.316 42.8012 53.5788 40.1915 54.7593C42.7151 49.7903 47.2175 40.9505 49.6838 36.1189C51.7486 37.8209 54.8744 37.519 56.7958 39.4132C58.1723 40.8682 59.0613 42.8448 60.868 43.8605C58.0289 49.406 55.2185 54.9789 52.3508 60.5243L51.5765 57.1477C50.8309 55.4181 51.175 49.9825 48.1352 51.1081ZM83.4945 20.6904C83.4945 13.4429 77.3576 7.56801 69.7867 7.56801C62.2158 7.56801 56.0789 13.4429 56.0789 20.6904C56.7671 38.068 82.8063 38.068 83.4945 20.6904ZM61.4702 18.7413C61.6423 18.1922 62.1585 17.753 62.7894 17.6981L66.6322 17.149L68.3528 13.7998C68.8977 12.7566 70.7331 12.7566 71.2493 13.7998L72.9699 17.149L76.8414 17.6981C78.1319 17.8353 78.6767 19.51 77.7304 20.3335L74.9487 22.9415L75.6082 26.5928C75.6943 27.1693 75.4649 27.7458 74.9487 28.1027C74.4325 28.4321 73.7729 28.487 73.2567 28.2125L69.8154 26.4829L66.3741 28.2125C65.8292 28.487 65.1696 28.4595 64.6821 28.1027C64.1659 27.7458 63.9365 27.1693 64.0225 26.5928L64.6821 22.9415L61.9004 20.3335C61.4415 19.9217 61.2695 19.2903 61.4702 18.7413ZM67.5212 21.2669L66.4888 20.3061L67.9227 20.1139C68.9551 20.0316 69.3852 18.7413 69.7867 18.0001L70.4176 19.2629C70.8191 20.1963 72.2243 20.1688 73.0846 20.3061L72.0522 21.2669C71.2493 21.8983 71.6794 23.1886 71.8228 24.0122L70.5323 23.3533C69.6433 22.8317 68.5249 23.6279 67.7506 24.0122C67.8653 23.1886 68.3528 21.8983 67.5212 21.2669Z" fill="#E6992A"/>
</svg>
